<svg id="svg" version="1.1" xmlns="http://www.w3.org/2000/svg" xmlns:xlink="http://www.w3.org/1999/xlink" width="400" height="316" viewBox="0, 0, 400,316"><g id="svgg"><path id="path0" d="M261.918 12.327 C 256.819 13.410,252.418 17.989,250.235 24.481 C 248.834 28.649,248.844 28.646,240.560 26.740 C 234.205 25.278,227.951 24.158,220.711 23.185 C 214.536 22.354,192.012 22.342,186.403 23.166 C 184.316 23.473,181.115 23.944,179.289 24.214 C 160.119 27.044,140.791 33.953,124.269 43.882 C 121.148 45.758,120.150 45.850,116.192 44.632 C 78.935 33.163,46.210 70.322,61.857 106.330 C 64.142 111.589,64.140 111.746,61.729 117.787 C 58.086 126.914,55.466 137.222,54.092 147.826 C 53.181 154.862,52.970 158.333,52.967 166.324 C 52.963 179.113,53.893 187.569,56.653 199.842 C 69.542 257.154,119.744 302.417,179.921 310.983 C 188.612 312.220,189.091 312.431,189.091 315.011 L 189.091 316.206 190.796 316.206 C 192.549 316.206,192.885 315.955,192.885 314.648 C 192.885 313.003,193.476 312.900,204.222 312.684 C 220.888 312.348,233.853 310.540,246.957 306.725 C 264.419 301.641,277.750 295.242,292.964 284.641 C 319.246 266.329,340.812 235.976,349.060 205.692 C 351.029 198.463,351.254 197.446,352.380 190.672 C 355.214 173.622,355.032 157.988,351.789 140.038 C 348.755 123.242,339.576 101.951,328.915 86.983 C 323.653 79.594,321.163 76.528,314.095 68.731 C 310.705 64.993,310.627 64.762,311.157 60.065 C 312.880 44.796,308.636 35.715,300.296 36.821 C 296.085 37.380,294.097 39.780,292.583 46.134 C 292.442 46.725,291.942 47.496,291.471 47.847 L 290.616 48.486 288.628 47.471 C 283.398 44.801,282.735 43.897,282.164 38.646 C 280.924 27.236,279.346 22.126,275.584 17.333 C 272.436 13.321,266.857 11.278,261.918 12.327 M269.318 15.974 C 277.137 19.484,279.984 30.623,279.413 55.477 C 278.567 92.325,277.793 89.639,287.455 83.403 C 292.841 79.926,294.027 75.555,295.025 55.494 C 295.674 42.444,296.823 39.497,301.287 39.430 C 307.077 39.342,309.690 47.033,308.285 60.018 C 305.543 85.355,301.334 92.120,283.953 99.128 C 277.971 101.540,278.519 98.351,277.949 134.071 C 277.764 145.636,277.476 160.008,277.308 166.008 C 276.530 193.795,276.571 194.020,282.176 192.597 C 295.034 189.332,300.362 179.743,302.135 156.680 C 302.242 155.289,302.462 152.798,302.624 151.146 C 302.915 148.162,303.640 133.117,304.178 118.893 C 304.774 103.146,306.612 99.289,313.519 99.289 C 322.304 99.289,323.969 108.590,321.412 143.399 C 320.614 154.265,320.057 159.256,318.570 168.854 C 314.356 196.052,305.263 207.035,280.877 214.376 C 277.338 215.442,277.180 215.585,276.864 218.024 C 276.607 220.005,277.225 272.013,277.625 282.055 C 277.896 288.881,277.876 289.551,277.373 290.277 C 276.324 291.790,258.957 300.076,256.614 300.181 C 254.321 300.284,254.578 304.322,253.881 257.233 C 253.397 224.564,253.897 227.351,248.379 226.569 C 236.609 224.901,231.470 223.597,225.200 220.689 C 207.611 212.532,198.537 196.686,193.707 165.692 C 191.086 148.870,193.240 142.282,201.356 142.296 C 207.662 142.306,210.255 146.535,212.628 160.678 C 216.082 181.272,220.914 194.653,226.856 200.083 C 232.428 205.176,241.790 208.677,248.493 208.175 C 252.183 207.899,252.091 208.355,251.958 190.988 C 251.826 173.620,252.075 174.533,246.954 172.649 C 235.809 168.549,228.662 162.360,226.137 154.625 C 224.623 149.987,221.813 136.648,220.708 128.854 C 220.363 126.419,219.870 123.004,219.613 121.265 C 215.862 95.921,215.501 88.428,217.811 83.901 C 219.087 81.403,221.577 80.157,224.831 80.390 C 229.848 80.749,231.512 83.193,233.179 92.643 C 234.065 97.663,234.432 100.838,236.543 121.739 C 239.006 146.120,240.714 152.224,246.250 156.437 C 250.698 159.821,252.044 159.790,252.508 156.294 C 252.728 154.640,252.268 127.493,251.691 107.984 C 250.031 51.888,250.393 32.661,253.274 24.032 C 255.800 16.465,262.696 13.002,269.318 15.974 M219.289 25.116 C 228.331 25.973,243.050 28.849,246.546 30.442 C 248.145 31.171,248.202 31.644,248.001 42.559 C 247.900 48.108,247.984 61.613,248.190 72.569 C 248.573 92.974,248.530 94.177,247.390 95.011 C 246.889 95.377,246.903 95.480,247.597 96.454 C 248.238 97.354,248.378 98.043,248.584 101.320 C 249.102 109.537,250.176 151.312,249.898 152.441 C 249.249 155.082,247.192 154.423,244.770 150.796 C 242.111 146.814,241.272 142.041,238.746 116.522 C 237.575 104.693,237.425 103.242,237.131 100.926 C 236.684 97.397,236.760 94.797,237.335 93.977 C 237.800 93.313,237.780 93.206,237.027 92.311 C 236.584 91.785,236.070 90.756,235.885 90.025 C 232.504 76.703,220.976 72.930,215.202 83.256 C 214.568 84.389,213.697 85.548,213.267 85.830 C 212.539 86.307,212.515 86.404,212.920 87.203 C 213.191 87.738,213.439 89.794,213.577 92.648 C 213.789 97.065,215.593 112.578,216.923 121.423 C 217.276 123.771,217.698 126.688,217.861 127.905 C 218.213 130.532,219.216 136.403,220.103 141.028 C 223.979 161.226,227.722 166.606,242.846 173.712 C 245.368 174.897,247.785 176.212,248.219 176.634 L 249.007 177.401 249.260 188.068 C 249.604 202.533,249.539 204.154,248.582 204.929 C 246.977 206.228,241.462 205.279,235.589 202.695 C 225.243 198.142,220.363 188.773,216.151 165.375 C 212.158 143.194,209.954 139.488,200.949 139.821 C 190.036 140.224,187.523 149.848,192.255 173.123 C 199.858 210.524,212.436 223.447,246.581 228.941 C 250.415 229.558,252.060 232.383,250.115 235.013 C 249.543 235.787,249.469 236.093,249.757 236.492 C 250.701 237.803,250.819 239.010,251.072 249.960 C 251.723 278.160,251.810 301.602,251.268 302.430 C 250.315 303.884,239.136 306.915,228.617 308.572 C 203.221 312.573,177.792 310.584,154.659 302.786 C 149.518 301.053,148.933 300.707,148.933 299.402 C 148.933 298.536,148.851 298.448,148.221 298.636 C 145.392 299.477,143.336 298.808,134.195 294.070 C 118.850 286.116,109.833 279.527,96.975 266.870 L 90.060 260.064 90.161 258.661 C 90.262 257.260,90.262 257.258,89.021 257.001 C 86.656 256.509,81.536 249.997,75.034 239.209 C 70.031 230.911,69.267 229.091,70.027 227.289 C 70.199 226.879,70.002 226.645,69.198 226.305 C 67.256 225.483,65.191 221.210,62.064 211.542 C 58.960 201.940,58.853 201.408,59.736 199.959 L 60.340 198.969 59.594 198.630 C 55.373 196.706,52.786 153.381,56.660 149.506 C 57.245 148.921,57.557 148.875,59.723 149.056 C 72.862 150.154,89.866 149.456,91.573 147.749 C 92.194 147.129,91.620 146.761,90.928 147.336 C 90.604 147.605,89.271 147.603,85.643 147.330 C 82.389 147.085,77.092 147.036,69.565 147.181 C 63.391 147.301,58.080 147.298,57.762 147.174 C 55.652 146.353,57.534 136.192,60.112 134.486 C 61.569 133.522,61.563 133.544,60.553 132.750 C 59.221 131.702,59.550 129.906,62.707 120.975 C 65.080 114.263,65.538 114.137,70.561 118.819 C 89.002 136.007,113.082 137.172,131.669 121.777 C 142.827 112.534,149.762 94.352,147.060 81.423 C 145.493 73.925,145.044 72.517,142.623 67.510 C 139.450 60.947,135.067 55.790,128.634 51.054 C 122.924 46.849,123.123 46.397,132.880 41.389 C 159.789 27.579,188.409 22.189,219.289 25.116 M109.091 45.688 C 143.051 51.488,156.831 92.911,132.821 117.024 C 106.020 143.942,60.664 125.653,60.606 87.905 C 60.566 61.630,83.830 41.373,109.091 45.688 M288.248 49.793 C 292.591 52.623,292.616 52.750,291.544 66.514 C 290.731 76.944,288.010 82.213,283.435 82.213 C 281.620 82.213,281.616 82.178,281.869 67.992 C 282.266 45.652,282.197 45.849,288.248 49.793 M198.317 56.358 C 198.407 56.994,198.616 57.083,200.158 57.143 C 201.639 57.201,201.780 57.161,201.107 56.874 C 197.926 55.517,198.205 55.569,198.317 56.358 M172.490 56.601 C 172.598 56.775,172.882 56.917,173.123 56.917 C 173.363 56.917,173.647 56.775,173.755 56.601 C 173.866 56.421,173.594 56.285,173.123 56.285 C 172.651 56.285,172.379 56.421,172.490 56.601 M152.338 64.382 C 151.764 65.642,152.488 65.943,157.070 66.347 C 174.667 67.901,200.634 67.652,205.059 65.887 C 207.947 64.735,173.423 64.021,161.424 64.984 C 154.160 65.567,153.360 65.467,153.360 63.983 C 153.360 63.266,152.735 63.510,152.338 64.382 M314.369 72.016 C 325.650 82.897,338.316 103.890,344.812 122.475 C 346.665 127.775,346.906 129.367,346.008 130.371 C 345.480 130.961,345.482 131.006,346.042 131.345 C 347.630 132.304,348.139 132.952,348.746 134.786 C 352.181 145.158,353.169 176.222,350.509 190.198 C 347.277 207.181,344.690 215.226,342.118 216.291 C 341.260 216.647,341.231 216.716,341.667 217.339 C 342.578 218.639,342.372 219.463,339.679 225.296 C 328.619 249.248,310.592 270.092,287.700 285.397 C 280.294 290.347,280.645 291.028,280.175 270.810 C 279.977 262.299,279.686 250.950,279.529 245.590 C 279.238 235.712,279.302 234.796,280.365 233.621 C 280.796 233.145,280.779 233.001,280.191 232.198 C 279.608 231.402,279.513 230.679,279.331 225.613 C 279.040 217.573,278.943 217.756,284.398 216.126 C 298.315 211.967,310.373 202.415,315.332 191.621 C 319.964 181.538,322.795 164.753,324.586 136.759 C 325.217 126.901,325.266 126.563,326.198 125.631 L 326.970 124.859 326.306 123.926 C 325.705 123.083,325.616 122.347,325.373 116.279 C 324.853 103.228,322.401 98.493,315.428 97.071 C 308.098 95.576,301.344 102.407,301.344 111.315 C 301.344 111.684,300.909 112.421,300.377 112.952 L 299.410 113.919 300.298 114.849 L 301.186 115.778 301.144 125.320 C 301.036 150.220,298.109 173.920,294.312 180.640 C 290.939 186.610,283.608 191.228,280.617 189.268 L 279.744 188.696 279.947 174.427 C 280.464 138.048,280.777 119.878,280.975 114.792 L 281.189 109.267 282.084 108.432 L 282.978 107.596 282.201 106.865 C 281.365 106.081,281.182 104.756,281.760 103.676 C 281.959 103.305,284.372 101.953,287.623 100.392 C 301.390 93.781,306.324 87.812,308.921 74.625 C 310.026 69.015,310.849 68.620,314.369 72.016 M78.103 138.961 C 78.103 139.569,78.851 139.907,79.579 139.628 C 80.188 139.394,79.864 138.987,78.814 138.670 C 78.283 138.510,78.103 138.584,78.103 138.961 M226.325 236.423 C 225.889 236.537,225.841 236.694,226.096 237.171 C 226.273 237.502,226.328 238.132,226.218 238.571 C 226.108 239.009,226.111 239.368,226.224 239.368 C 227.022 239.368,234.284 236.739,234.138 236.503 C 233.957 236.210,227.398 236.143,226.325 236.423 M240.953 236.285 C 240.956 236.328,241.145 236.900,241.373 237.555 L 241.788 238.746 243.076 237.813 C 245.048 236.384,245.024 236.206,242.865 236.206 C 241.811 236.206,240.951 236.241,240.953 236.285 M162.530 313.064 C 161.921 313.181,161.708 313.297,162.055 313.323 C 162.403 313.348,163.257 313.574,163.953 313.825 C 165.733 314.466,166.118 314.418,165.349 313.650 C 164.987 313.287,164.609 313.073,164.509 313.172 C 164.409 313.272,164.172 313.241,163.982 313.103 C 163.792 312.965,163.138 312.948,162.530 313.064 " stroke="none" fill="#070606" fill-rule="evenodd"></path><path id="path1" d="M96.917 46.021 C 57.132 52.344,47.483 104.569,82.470 124.212 C 100.227 134.181,123.539 129.244,135.957 112.885 C 158.243 83.527,132.997 40.287,96.917 46.021 " stroke="none" fill="#fc261d" fill-rule="evenodd"></path><path id="path2" d="M130.593 0.556 C 121.468 4.805,110.284 11.218,104.400 15.575 C 103.415 16.305,101.946 17.349,101.137 17.895 C 96.488 21.034,89.674 26.981,82.349 34.297 C 74.250 42.385,70.158 47.124,64.830 54.588 C 64.226 55.434,63.203 56.868,62.557 57.774 C 56.365 66.452,49.802 78.961,44.425 92.332 C 43.778 93.942,42.363 98.028,42.072 99.130 C 41.934 99.652,41.679 100.435,41.505 100.870 C 40.914 102.347,39.101 108.832,38.412 111.937 C 38.122 113.241,37.684 114.949,37.439 115.731 C 37.194 116.514,36.994 117.599,36.994 118.142 C 36.995 118.685,36.783 119.735,36.522 120.474 C 36.261 121.214,36.047 122.415,36.047 123.144 C 36.047 123.874,35.849 125.172,35.606 126.030 C 35.362 126.887,35.086 128.870,34.992 130.435 C 34.897 132.000,34.634 133.779,34.406 134.387 C 34.085 135.246,33.992 139.103,33.992 151.621 C 33.992 164.138,34.085 167.995,34.406 168.854 C 34.634 169.462,34.897 171.241,34.992 172.806 C 35.086 174.372,35.362 176.354,35.606 177.212 C 35.849 178.069,36.047 179.368,36.047 180.097 C 36.047 180.826,36.261 182.027,36.522 182.767 C 36.783 183.506,36.995 184.556,36.994 185.099 C 36.994 185.642,37.195 186.727,37.443 187.510 C 37.690 188.292,38.136 190.071,38.434 191.462 C 38.731 192.854,39.251 194.917,39.589 196.047 C 39.927 197.178,40.425 198.885,40.696 199.842 C 40.967 200.798,41.331 201.937,41.505 202.372 C 41.679 202.806,41.934 203.589,42.072 204.111 C 43.262 208.609,48.355 220.795,51.870 227.555 C 54.966 233.508,60.731 243.109,63.236 246.482 C 63.752 247.178,64.569 248.316,65.052 249.011 C 75.562 264.152,94.126 281.597,110.672 291.881 C 117.066 295.855,130.797 303.249,131.764 303.238 C 131.902 303.237,133.510 303.864,135.336 304.633 C 142.295 307.562,149.544 310.198,150.643 310.198 C 150.908 310.198,151.592 310.395,152.163 310.636 C 152.734 310.876,153.842 311.234,154.625 311.431 C 155.407 311.628,157.102 312.071,158.391 312.416 C 161.036 313.124,161.378 313.166,161.120 312.749 C 161.020 312.587,161.092 312.360,161.279 312.244 C 161.467 312.128,161.750 311.692,161.909 311.274 C 162.166 310.599,162.392 310.514,163.934 310.514 C 165.982 310.514,166.499 311.098,166.229 313.108 C 166.078 314.232,166.126 314.340,166.747 314.279 C 167.123 314.243,167.858 314.394,168.379 314.616 C 168.901 314.837,170.395 315.131,171.700 315.268 C 173.004 315.405,174.568 315.672,175.176 315.861 C 175.803 316.057,178.782 316.206,182.071 316.206 L 187.862 316.206 187.765 314.862 L 187.668 313.518 185.929 313.135 C 184.972 312.925,181.628 312.381,178.498 311.927 C 175.368 311.472,171.312 310.761,169.486 310.346 C 167.660 309.932,165.668 309.502,165.059 309.392 C 163.558 309.120,153.974 306.209,151.621 305.310 C 150.577 304.912,148.656 304.192,147.352 303.710 C 137.448 300.054,124.723 293.506,116.680 287.926 C 110.828 283.867,108.598 282.170,102.968 277.494 C 89.274 266.119,69.025 240.063,65.920 229.820 C 65.798 229.419,65.424 228.637,65.088 228.082 C 62.594 223.961,57.194 208.173,55.375 199.684 C 53.180 189.444,53.049 188.644,52.290 180.870 C 50.576 163.324,52.297 143.979,56.974 128.221 C 58.999 121.401,59.946 118.677,62.010 113.730 C 62.760 111.935,62.683 111.414,61.135 107.768 C 56.824 97.612,55.340 87.135,57.157 79.684 C 57.518 78.206,57.912 76.498,58.034 75.889 C 58.156 75.281,58.468 74.142,58.729 73.360 C 66.871 48.900,92.422 35.901,117.140 43.645 C 120.132 44.583,121.115 44.385,124.978 42.068 C 133.579 36.909,144.186 32.164,154.308 28.947 C 166.005 25.230,169.955 24.364,186.403 21.910 C 191.113 21.207,214.655 21.116,218.972 21.783 C 220.364 21.998,222.711 22.305,224.190 22.465 C 225.668 22.626,228.016 22.971,229.407 23.233 C 230.798 23.495,232.862 23.855,233.992 24.034 C 235.123 24.212,237.399 24.694,239.051 25.105 C 248.435 27.437,247.769 27.560,249.462 23.189 C 252.782 14.615,257.090 11.225,264.664 11.225 C 275.492 11.225,281.374 19.288,283.168 36.589 C 283.806 42.743,283.925 43.064,286.114 44.546 C 290.530 47.535,291.843 47.398,291.856 43.944 C 291.859 43.012,293.989 39.024,295.049 37.964 C 298.212 34.801,305.112 34.761,308.081 37.889 C 311.947 41.959,313.433 49.604,312.360 59.897 C 311.895 64.355,311.972 64.620,314.547 67.439 C 336.795 91.787,348.773 115.270,353.696 144.190 C 356.832 162.612,355.698 186.608,350.893 203.478 C 350.546 204.696,350.081 206.474,349.859 207.431 C 346.082 223.704,332.057 248.714,318.478 263.390 C 311.877 270.525,304.569 277.375,298.260 282.344 C 294.208 285.534,292.988 286.438,292.703 286.461 C 292.560 286.473,291.567 287.158,290.497 287.984 C 288.377 289.621,287.556 290.163,286.741 290.461 C 286.449 290.568,286.133 290.855,286.040 291.098 C 285.946 291.342,285.588 291.542,285.243 291.542 C 284.898 291.542,284.503 291.720,284.364 291.937 C 284.224 292.155,283.470 292.663,282.688 293.068 C 280.741 294.073,279.458 294.754,278.893 295.080 C 278.632 295.231,278.170 295.438,277.866 295.540 C 277.561 295.642,277.312 295.838,277.312 295.974 C 277.312 296.111,276.921 296.377,276.443 296.565 C 275.605 296.895,275.376 297.012,273.992 297.818 C 273.644 298.020,273.146 298.265,272.885 298.362 C 272.625 298.459,271.984 298.722,271.462 298.947 C 270.941 299.171,269.945 299.600,269.249 299.900 C 268.553 300.199,267.628 300.677,267.194 300.962 C 266.759 301.246,266.048 301.529,265.614 301.591 C 265.180 301.652,264.600 301.906,264.324 302.156 C 264.049 302.405,263.519 302.609,263.147 302.609 C 262.431 302.609,260.039 303.743,259.743 304.222 C 259.646 304.378,259.105 304.506,258.540 304.506 C 257.975 304.506,257.236 304.715,256.898 304.970 C 256.561 305.226,256.093 305.439,255.858 305.444 C 255.623 305.450,254.983 305.656,254.435 305.902 C 253.887 306.149,253.012 306.421,252.490 306.507 C 251.968 306.593,250.604 307.010,249.459 307.433 C 248.313 307.857,246.763 308.286,246.014 308.386 C 245.265 308.486,244.535 308.757,244.393 308.988 C 244.238 309.238,243.210 309.487,241.830 309.607 C 239.385 309.820,237.317 310.295,235.683 311.020 C 235.135 311.263,233.971 311.462,233.095 311.462 C 232.220 311.462,231.103 311.617,230.613 311.806 C 229.773 312.130,225.957 312.624,222.451 312.862 C 221.581 312.921,219.447 313.135,217.708 313.337 C 215.968 313.539,210.092 313.819,204.648 313.959 C 194.594 314.217,194.243 314.268,194.003 315.517 L 193.870 316.206 209.009 316.206 C 219.472 316.206,224.424 316.096,225.039 315.850 C 225.528 315.655,227.047 315.390,228.413 315.262 C 229.779 315.134,230.988 314.902,231.100 314.748 C 231.213 314.593,232.087 314.423,233.043 314.370 C 234.000 314.318,235.423 314.078,236.206 313.838 C 236.988 313.597,238.340 313.239,239.209 313.042 C 243.483 312.071,244.371 311.831,245.081 311.451 C 245.504 311.225,246.205 311.013,246.640 310.980 C 247.075 310.947,247.858 310.766,248.379 310.579 C 248.901 310.391,251.024 309.696,253.097 309.035 C 255.171 308.373,257.020 307.688,257.208 307.512 C 257.396 307.337,257.905 307.157,258.340 307.112 C 258.775 307.067,259.557 306.828,260.079 306.581 C 260.601 306.333,262.486 305.529,264.269 304.793 C 266.051 304.058,267.510 303.341,267.510 303.201 C 267.510 303.060,267.723 303.027,267.984 303.127 C 268.245 303.227,268.458 303.143,268.458 302.940 C 268.458 302.737,268.588 302.651,268.746 302.749 C 269.187 303.021,270.063 302.586,269.831 302.211 C 269.712 302.018,269.777 301.972,269.985 302.101 C 270.367 302.337,279.145 298.092,279.684 297.412 C 279.858 297.192,280.113 297.006,280.251 296.997 C 280.986 296.954,282.335 296.166,282.161 295.883 C 282.045 295.696,282.110 295.649,282.311 295.773 C 282.506 295.893,282.943 295.714,283.282 295.374 C 283.622 295.034,283.967 294.823,284.049 294.905 C 284.130 294.987,284.640 294.785,285.181 294.456 C 285.721 294.127,286.093 293.787,286.007 293.701 C 285.920 293.615,286.028 293.541,286.245 293.536 C 286.692 293.528,290.699 291.097,293.768 288.973 C 305.030 281.179,312.587 274.696,321.939 264.803 C 326.046 260.458,327.560 258.694,331.790 253.319 C 334.001 250.510,334.410 249.940,338.206 244.383 C 345.697 233.414,353.982 216.781,357.320 206.008 C 357.698 204.791,358.198 203.296,358.432 202.688 C 358.666 202.079,359.158 200.585,359.525 199.368 C 359.893 198.150,360.353 196.656,360.548 196.047 C 360.743 195.439,361.010 194.372,361.142 193.676 C 361.274 192.980,361.543 191.771,361.740 190.988 C 362.484 188.029,362.780 186.672,363.016 185.138 C 363.150 184.269,363.415 183.157,363.606 182.667 C 363.797 182.178,363.953 181.172,363.953 180.432 C 363.953 179.692,364.156 178.385,364.405 177.528 C 364.654 176.670,365.008 174.474,365.192 172.648 C 365.375 170.822,365.659 168.545,365.823 167.589 C 366.205 165.352,366.205 138.311,365.823 135.810 C 365.663 134.767,365.380 132.419,365.194 130.593 C 365.007 128.767,364.651 126.663,364.403 125.918 C 364.155 125.173,363.954 124.034,363.955 123.388 C 363.958 122.332,363.663 120.778,362.622 116.364 C 362.438 115.581,362.178 114.212,362.046 113.321 C 361.913 112.430,361.648 111.408,361.456 111.049 C 361.264 110.691,361.107 110.068,361.108 109.665 C 361.109 109.262,360.904 108.292,360.652 107.510 C 360.400 106.727,359.893 105.091,359.526 103.874 C 359.158 102.656,358.666 101.162,358.432 100.553 C 358.198 99.945,357.698 98.451,357.320 97.233 C 354.616 88.504,347.633 73.760,341.672 64.190 C 338.286 58.754,337.109 57.058,332.427 50.866 C 320.315 34.849,306.052 21.924,287.747 10.375 C 282.827 7.270,274.933 3.033,269.662 0.667 L 268.177 -0.000 199.938 0.020 C 137.556 0.039,131.605 0.085,130.593 0.556 M192.727 25.965 C 182.081 26.371,165.851 29.439,156.047 32.901 C 155.004 33.269,153.296 33.829,152.253 34.145 C 147.345 35.633,132.235 42.653,127.510 45.640 C 125.508 46.906,125.692 47.366,129.249 49.991 C 139.461 57.528,145.137 66.591,147.946 79.845 C 148.687 83.344,148.896 91.529,148.297 93.599 C 148.121 94.206,147.831 95.628,147.652 96.759 C 145.709 109.047,136.079 122.059,124.427 128.137 C 116.352 132.349,112.616 133.254,103.241 133.269 C 88.889 133.293,80.104 129.681,69.231 119.289 C 65.659 115.875,65.695 115.849,62.888 124.019 C 60.270 131.638,60.426 132.241,64.676 130.928 C 69.978 129.291,75.437 131.418,78.279 136.230 C 79.048 137.532,79.516 137.652,82.073 137.207 C 88.757 136.043,92.133 138.356,93.289 144.893 C 94.246 150.300,89.555 151.339,67.892 150.521 C 60.591 150.246,57.725 150.237,57.421 150.489 C 55.703 151.915,55.487 172.989,57.079 183.874 C 57.334 185.613,57.685 188.245,57.861 189.723 C 58.824 197.836,58.738 197.753,65.906 197.475 C 84.319 196.761,83.364 197.223,100.870 180.538 C 110.628 171.237,112.006 170.243,122.552 164.893 C 134.578 158.793,137.483 156.579,141.436 150.503 C 145.522 144.222,152.256 128.954,153.983 122.055 C 154.178 121.273,154.602 119.921,154.925 119.051 C 155.247 118.182,156.018 115.905,156.639 113.992 C 162.276 96.619,164.600 93.509,173.046 92.042 C 181.637 90.549,183.075 90.149,186.245 88.364 C 187.897 87.433,190.601 86.152,192.253 85.516 L 195.257 84.360 204.061 84.516 L 212.865 84.671 213.705 83.232 C 220.454 71.668,234.352 75.437,236.999 89.549 C 237.285 91.075,237.820 91.510,240.643 92.512 C 247.448 94.927,247.117 95.286,247.106 85.499 C 247.060 43.645,246.906 32.306,246.377 31.846 C 245.187 30.811,236.196 28.706,226.541 27.202 C 217.042 25.723,207.894 25.388,192.727 25.965 M192.548 46.859 C 194.453 47.772,197.800 51.134,198.596 52.933 C 199.277 54.473,200.229 55.334,201.256 55.339 C 206.549 55.365,210.461 65.173,205.907 67.001 C 201.059 68.947,177.973 69.127,155.415 67.394 C 150.258 66.998,149.530 65.972,151.966 62.531 C 156.430 56.227,164.913 52.473,170.817 54.189 C 173.365 54.929,173.405 54.916,175.920 52.535 C 181.961 46.818,188.097 44.723,192.548 46.859 M183.761 50.292 C 181.794 51.276,180.396 52.335,177.711 54.872 C 173.598 58.759,173.202 58.924,171.185 57.588 C 167.640 55.241,162.762 56.396,157.427 60.846 C 154.201 63.538,154.254 64.369,157.628 64.035 C 166.054 63.201,191.981 62.998,199.300 63.708 C 205.209 64.281,205.832 64.007,204.919 61.241 C 204.328 59.450,203.565 59.000,200.769 58.795 C 197.912 58.585,197.175 58.128,196.843 56.358 C 195.654 50.018,189.764 47.287,183.761 50.292 M283.989 49.893 C 283.571 50.673,283.005 64.049,283.004 73.132 C 283.004 81.510,283.022 81.575,285.021 80.340 C 288.161 78.399,289.539 75.455,289.985 69.731 C 290.149 67.640,290.423 64.348,290.596 62.415 C 291.390 53.511,291.223 52.943,287.091 50.514 C 284.811 49.173,284.416 49.094,283.989 49.893 M310.699 71.735 C 310.606 71.885,310.324 73.286,310.071 74.849 C 307.874 88.432,301.539 95.644,285.693 102.603 C 281.525 104.433,281.389 105.805,285.239 107.160 C 286.184 107.493,288.877 108.505,291.225 109.410 C 300.008 112.797,299.725 112.783,300.260 109.846 C 302.143 99.491,307.683 94.295,315.252 95.784 C 321.158 96.946,324.059 100.319,326.152 108.458 C 326.264 108.893,326.426 111.881,326.512 115.099 C 326.706 122.305,326.873 123.048,328.458 123.745 C 332.806 125.657,344.223 129.444,344.881 129.191 C 345.629 128.904,345.186 126.810,343.250 121.477 C 337.942 106.850,330.422 93.437,320.353 80.632 C 314.921 73.725,311.448 70.524,310.699 71.735 M194.882 87.267 C 193.981 87.403,191.917 88.159,190.297 88.945 C 182.862 92.556,180.508 93.357,175.332 94.037 C 168.589 94.924,166.507 96.320,163.961 101.659 C 161.759 106.279,158.621 114.967,156.537 122.213 C 155.987 124.126,155.338 126.146,155.095 126.700 C 154.852 127.255,154.283 128.810,153.831 130.157 C 152.664 133.633,149.612 140.642,147.428 144.860 C 141.111 157.061,138.244 159.717,123.162 167.330 C 112.855 172.533,111.253 173.698,102.134 182.613 C 85.184 199.184,84.024 199.775,68.300 199.857 C 60.685 199.897,59.997 200.178,60.778 202.928 C 61.061 203.926,61.714 206.237,62.227 208.063 C 64.269 215.324,67.848 224.288,69.005 225.036 C 69.226 225.179,81.075 225.382,95.336 225.486 C 122.073 225.680,125.664 225.838,131.542 227.079 C 133.194 227.427,135.968 227.909,137.708 228.150 C 140.925 228.595,143.202 229.023,149.407 230.350 C 151.320 230.759,153.953 231.254,155.257 231.450 C 156.561 231.646,158.411 232.005,159.368 232.249 C 160.324 232.493,162.387 232.852,163.953 233.047 C 165.518 233.242,168.079 233.602,169.644 233.848 C 176.653 234.947,181.607 235.099,209.328 235.066 C 239.765 235.030,248.296 234.821,249.024 234.093 C 250.414 232.703,249.148 230.637,246.640 230.204 C 232.286 227.728,225.222 225.484,217.596 220.980 C 205.541 213.860,195.183 196.488,192.076 178.182 C 191.958 177.486,191.600 175.779,191.281 174.387 C 185.723 150.195,189.137 138.498,201.758 138.498 C 209.120 138.498,213.540 143.751,215.327 154.625 C 215.542 155.929,215.928 157.921,216.186 159.051 C 216.443 160.182,216.857 162.387,217.104 163.953 C 220.005 182.319,224.800 193.993,231.515 199.041 C 236.222 202.579,246.459 205.537,247.917 203.780 C 248.517 203.057,248.096 179.724,247.455 178.192 C 247.057 177.238,246.429 176.840,241.528 174.434 C 226.646 167.128,222.217 160.524,218.806 140.553 C 218.598 139.336,218.166 137.059,217.846 135.494 C 217.525 133.929,217.106 131.225,216.913 129.486 C 216.721 127.747,216.364 125.322,216.119 124.098 C 215.874 122.873,215.533 120.668,215.360 119.197 C 215.188 117.725,214.842 115.099,214.592 113.360 C 214.342 111.621,213.972 108.704,213.770 106.877 C 213.567 105.051,213.198 101.992,212.948 100.079 C 212.699 98.166,212.400 94.775,212.285 92.543 C 211.983 86.710,212.631 87.126,203.744 87.067 C 199.772 87.041,195.784 87.131,194.882 87.267 M238.314 95.072 C 238.008 95.378,238.049 97.742,238.420 101.186 C 238.821 104.920,239.568 112.709,240.163 119.368 C 240.412 122.150,240.892 126.490,241.230 129.012 C 241.568 131.534,242.007 135.162,242.206 137.075 C 242.951 144.240,244.328 148.720,246.537 151.165 C 247.698 152.451,248.354 152.713,248.627 152.002 C 249.241 150.401,247.639 99.827,246.916 97.973 C 246.390 96.628,239.187 94.199,238.314 95.072 M282.610 109.608 C 282.165 110.371,282.005 115.304,281.724 136.917 C 281.556 149.874,281.328 166.594,281.216 174.073 C 280.984 189.675,280.844 188.847,283.607 188.209 C 290.656 186.582,295.536 178.729,296.913 166.798 C 297.114 165.059,297.482 162.531,297.730 161.179 C 297.979 159.828,298.182 158.055,298.182 157.240 C 298.182 156.425,298.388 153.618,298.640 151.002 C 299.663 140.366,299.775 138.425,299.973 127.844 C 300.121 119.907,300.079 116.638,299.822 116.158 C 298.984 114.592,283.206 108.588,282.610 109.608 M326.846 127.173 C 326.349 127.952,326.073 130.949,325.211 144.980 C 324.944 149.328,324.455 154.735,324.125 156.996 C 323.795 159.257,323.369 162.672,323.178 164.585 C 322.699 169.389,321.473 175.904,319.697 183.083 C 315.669 199.360,304.065 210.790,285.170 217.090 C 280.143 218.766,280.345 218.411,280.593 225.109 C 280.714 228.386,280.939 230.786,281.148 231.038 C 282.118 232.206,285.611 231.095,297.233 225.919 C 303.218 223.254,313.711 219.763,315.737 219.763 C 316.113 219.763,317.498 219.487,318.816 219.150 C 320.133 218.813,322.824 218.313,324.795 218.038 C 326.767 217.763,329.091 217.403,329.960 217.237 C 330.830 217.072,333.036 216.719,334.862 216.454 C 336.688 216.189,339.160 215.738,340.356 215.452 L 342.530 214.932 343.484 212.842 C 344.507 210.600,344.830 209.494,346.823 201.423 C 350.100 188.153,350.724 183.251,350.909 169.328 C 351.049 158.826,350.147 146.239,348.927 141.653 C 348.673 140.700,348.464 139.545,348.462 139.085 C 348.443 134.760,346.774 132.899,341.186 130.972 C 338.664 130.102,334.964 128.821,332.964 128.125 C 327.841 126.342,327.420 126.276,326.846 127.173 M64.506 133.717 C 60.833 134.924,59.716 136.061,58.860 139.467 C 57.336 145.527,57.644 146.587,60.844 146.283 C 65.363 145.853,80.045 145.716,84.617 146.060 C 90.092 146.472,90.435 146.411,90.435 145.013 C 90.435 140.855,86.140 138.634,81.505 140.395 C 78.421 141.567,77.576 141.265,76.208 138.498 C 74.227 134.490,68.846 132.292,64.506 133.717 M335.178 218.833 C 333.700 219.164,331.209 219.642,329.644 219.894 C 313.223 222.536,308.412 223.827,297.708 228.458 C 291.228 231.261,288.231 232.433,284.663 233.560 C 281.534 234.548,281.079 234.782,280.902 235.490 C 280.513 237.036,281.684 286.217,282.120 286.652 C 283.537 288.068,301.746 274.113,311.493 264.140 C 316.122 259.404,326.722 246.300,328.239 243.437 C 328.458 243.025,329.248 241.757,329.994 240.620 C 334.439 233.853,341.249 219.943,340.752 218.648 C 340.509 218.013,338.542 218.078,335.178 218.833 M71.542 228.177 C 70.030 228.851,76.156 239.836,83.570 249.748 C 88.834 256.787,86.762 256.179,101.028 254.865 C 102.767 254.705,105.826 254.496,107.826 254.400 C 109.826 254.303,113.455 254.016,115.889 253.761 C 118.324 253.505,122.024 253.146,124.111 252.962 C 126.198 252.778,129.613 252.354,131.700 252.021 C 133.787 251.688,136.348 251.325,137.391 251.215 C 138.435 251.106,141.352 250.685,143.874 250.281 C 146.395 249.876,148.906 249.542,149.452 249.538 C 149.999 249.534,152.489 249.241,154.986 248.888 C 157.483 248.534,161.447 248.090,163.794 247.901 C 166.142 247.712,169.913 247.295,172.174 246.973 C 174.435 246.652,177.895 246.295,179.864 246.180 C 181.833 246.065,185.462 245.696,187.928 245.359 C 190.393 245.023,193.834 244.597,195.573 244.414 C 197.312 244.231,199.233 243.958,199.842 243.808 C 200.451 243.657,202.443 243.365,204.269 243.160 C 206.095 242.955,208.656 242.524,209.960 242.203 C 211.265 241.882,213.542 241.405,215.020 241.144 C 218.129 240.595,223.083 239.010,223.083 238.565 C 223.083 238.198,213.775 237.892,200.632 237.827 C 190.260 237.776,178.360 237.335,174.387 236.855 C 172.996 236.687,170.435 236.395,168.696 236.207 C 166.957 236.018,164.538 235.667,163.320 235.425 C 162.103 235.184,158.617 234.545,155.573 234.005 C 152.530 233.464,148.474 232.676,146.561 232.252 C 144.648 231.829,142.372 231.398,141.502 231.295 C 140.632 231.193,138.569 230.846,136.917 230.525 C 135.265 230.204,132.704 229.774,131.225 229.568 C 129.747 229.363,127.328 228.975,125.850 228.705 C 123.153 228.213,72.564 227.721,71.542 228.177 M245.297 238.032 C 244.646 238.332,242.725 239.860,241.029 241.428 C 234.043 247.884,231.292 249.897,223.549 254.215 C 220.727 255.788,218.353 257.075,218.272 257.075 C 218.191 257.075,216.181 258.125,213.805 259.409 C 211.430 260.693,206.213 263.453,202.213 265.542 C 179.451 277.430,171.926 282.144,155.731 294.662 C 149.640 299.371,149.475 299.649,152.174 300.649 C 163.877 304.986,178.687 308.168,190.988 308.988 C 196.729 309.371,217.147 309.147,219.921 308.670 C 220.964 308.491,223.526 308.110,225.613 307.823 C 230.479 307.155,238.538 305.608,240.188 305.026 C 240.890 304.778,242.310 304.404,243.341 304.195 C 249.700 302.910,250.889 302.010,250.632 298.674 C 250.524 297.273,250.293 283.818,250.120 268.775 C 249.793 240.369,249.730 238.708,248.958 237.936 C 248.340 237.318,246.760 237.359,245.297 238.032 M234.783 237.999 C 234.435 238.082,232.087 238.826,229.565 239.653 C 219.691 242.887,218.043 243.325,208.221 245.323 C 206.482 245.677,203.992 246.060,202.688 246.175 C 201.383 246.289,198.253 246.714,195.731 247.118 C 193.209 247.522,189.866 247.946,188.300 248.061 C 186.735 248.175,183.960 248.468,182.134 248.712 C 180.308 248.956,176.822 249.295,174.387 249.465 C 171.953 249.635,167.968 250.053,165.534 250.393 C 163.099 250.733,159.542 251.108,157.628 251.224 C 155.715 251.341,152.158 251.765,149.723 252.166 C 147.289 252.567,144.443 252.993,143.399 253.112 C 142.356 253.231,140.933 253.451,140.237 253.600 C 139.542 253.750,137.123 254.105,134.862 254.391 C 132.601 254.677,129.399 255.111,127.747 255.357 C 126.095 255.602,121.755 256.022,118.103 256.291 C 114.451 256.559,108.545 257.053,104.980 257.389 C 101.415 257.725,97.281 257.998,95.793 257.996 C 92.837 257.992,91.383 258.368,91.383 259.137 C 91.383 260.045,103.411 271.786,110.040 277.349 C 118.261 284.248,142.214 297.866,146.128 297.866 C 146.772 297.866,148.251 296.926,151.479 294.466 C 153.933 292.597,157.601 289.805,159.630 288.263 C 172.735 278.303,180.937 273.436,209.802 258.494 C 226.966 249.609,229.562 248.002,236.029 242.257 C 240.366 238.404,240.510 237.968,237.467 237.896 C 236.338 237.869,235.130 237.915,234.783 237.999 " stroke="none" fill="#ffffff" fill-rule="evenodd"></path><path id="path3" d="M259.709 11.666 C 255.053 13.378,251.751 17.142,249.322 23.505 C 247.792 27.514,248.377 27.423,239.051 25.105 C 237.399 24.694,235.123 24.212,233.992 24.034 C 232.862 23.855,230.798 23.495,229.407 23.233 C 228.016 22.971,225.668 22.626,224.190 22.465 C 222.711 22.305,220.364 21.998,218.972 21.783 C 214.655 21.116,191.113 21.207,186.403 21.910 C 169.955 24.364,166.005 25.230,154.308 28.947 C 144.186 32.164,133.579 36.909,124.978 42.068 C 121.115 44.385,120.132 44.583,117.140 43.645 C 92.422 35.901,66.871 48.900,58.729 73.360 C 58.468 74.142,58.156 75.281,58.034 75.889 C 57.912 76.498,57.518 78.206,57.157 79.684 C 55.340 87.135,56.824 97.612,61.135 107.768 C 62.683 111.414,62.760 111.935,62.010 113.730 C 58.312 122.590,56.017 130.514,53.783 142.134 C 51.604 153.470,51.041 168.085,52.290 180.870 C 53.049 188.644,53.180 189.444,55.375 199.684 C 57.194 208.173,62.594 223.961,65.088 228.082 C 65.424 228.637,65.798 229.419,65.920 229.820 C 68.330 237.769,82.162 257.037,93.902 268.798 C 100.245 275.152,101.968 276.729,107.236 280.999 C 118.322 289.984,133.601 298.634,147.352 303.710 C 148.656 304.192,150.577 304.912,151.621 305.310 C 153.974 306.209,163.558 309.120,165.059 309.392 C 165.668 309.502,167.660 309.932,169.486 310.346 C 171.312 310.761,175.368 311.472,178.498 311.927 C 181.628 312.381,184.972 312.925,185.929 313.135 L 187.668 313.518 187.765 314.862 C 187.901 316.738,189.091 316.872,189.091 315.011 C 189.091 312.431,188.612 312.220,179.921 310.983 C 119.744 302.417,69.542 257.154,56.653 199.842 C 54.805 191.627,54.364 188.827,53.365 178.972 C 52.850 173.896,52.852 158.712,53.367 153.992 C 55.009 138.961,57.387 128.666,61.729 117.787 C 64.140 111.746,64.142 111.589,61.857 106.330 C 54.165 88.629,57.538 69.598,70.748 56.161 C 83.018 43.680,99.509 39.496,116.192 44.632 C 120.150 45.850,121.148 45.758,124.269 43.882 C 140.791 33.953,160.119 27.044,179.289 24.214 C 181.115 23.944,184.316 23.473,186.403 23.166 C 192.012 22.342,214.536 22.354,220.711 23.185 C 227.951 24.158,234.205 25.278,240.560 26.740 C 248.844 28.646,248.834 28.649,250.235 24.481 C 255.241 9.592,270.869 7.550,277.909 20.864 C 280.061 24.934,281.184 29.626,282.164 38.646 C 282.735 43.897,283.398 44.801,288.628 47.471 L 290.616 48.486 291.471 47.847 C 291.942 47.496,292.442 46.725,292.583 46.134 C 294.097 39.780,296.085 37.380,300.296 36.821 C 308.636 35.715,312.880 44.796,311.157 60.065 C 310.627 64.762,310.705 64.993,314.095 68.731 C 319.067 74.216,321.096 76.575,323.535 79.710 C 336.643 96.552,344.339 111.936,350.016 132.641 C 354.806 150.110,355.655 170.966,352.380 190.672 C 351.254 197.446,351.029 198.463,349.060 205.692 C 341.221 234.475,322.788 261.453,297.391 281.314 C 277.611 296.783,251.469 307.800,226.993 310.983 C 217.729 312.188,213.629 312.494,204.198 312.684 C 193.006 312.909,193.202 312.866,192.770 315.199 C 192.596 316.141,192.646 316.238,193.256 316.148 C 193.632 316.092,193.973 315.783,194.021 315.453 C 194.190 314.281,194.659 314.215,204.648 313.959 C 210.092 313.819,215.968 313.539,217.708 313.337 C 219.447 313.135,221.581 312.921,222.451 312.862 C 225.957 312.624,229.773 312.130,230.613 311.806 C 231.103 311.617,232.220 311.462,233.095 311.462 C 233.971 311.462,235.135 311.263,235.683 311.020 C 237.317 310.295,239.385 309.820,241.830 309.607 C 243.210 309.487,244.238 309.238,244.393 308.988 C 244.535 308.757,245.265 308.486,246.014 308.386 C 246.763 308.286,248.313 307.857,249.459 307.433 C 250.604 307.010,251.968 306.593,252.490 306.507 C 253.012 306.421,253.887 306.149,254.435 305.902 C 254.983 305.656,255.623 305.450,255.858 305.444 C 256.093 305.439,256.561 305.226,256.898 304.970 C 257.236 304.715,257.975 304.506,258.540 304.506 C 259.105 304.506,259.646 304.378,259.743 304.222 C 260.039 303.743,262.431 302.609,263.147 302.609 C 263.519 302.609,264.049 302.405,264.324 302.156 C 264.600 301.906,265.180 301.652,265.614 301.591 C 266.048 301.529,266.759 301.246,267.194 300.962 C 267.628 300.677,268.553 300.199,269.249 299.900 C 269.945 299.600,271.012 299.141,271.621 298.880 C 272.229 298.619,272.941 298.283,273.202 298.134 C 273.462 297.984,273.889 297.781,274.150 297.683 C 274.411 297.584,274.838 297.370,275.099 297.206 C 275.360 297.042,275.964 296.754,276.443 296.565 C 276.921 296.377,277.312 296.111,277.312 295.974 C 277.312 295.838,277.561 295.642,277.866 295.540 C 278.170 295.438,278.632 295.231,278.893 295.080 C 279.458 294.754,280.741 294.073,282.688 293.068 C 283.470 292.663,284.224 292.155,284.364 291.937 C 284.503 291.720,284.898 291.542,285.243 291.542 C 285.588 291.542,285.946 291.342,286.040 291.098 C 286.133 290.855,286.449 290.568,286.741 290.461 C 287.556 290.163,288.377 289.621,290.497 287.984 C 291.567 287.158,292.560 286.473,292.703 286.461 C 292.988 286.438,294.208 285.534,298.260 282.344 C 309.798 273.257,323.006 259.429,329.466 249.672 C 335.765 240.157,338.616 235.203,342.295 227.380 C 345.416 220.743,348.905 211.541,349.859 207.431 C 350.081 206.474,350.546 204.696,350.893 203.478 C 354.810 189.724,356.603 165.987,354.821 151.462 C 351.881 127.494,342.774 104.003,329.100 85.113 C 323.993 78.058,321.647 75.209,314.547 67.439 C 311.972 64.620,311.895 64.355,312.360 59.897 C 313.433 49.604,311.947 41.959,308.081 37.889 C 305.112 34.761,298.212 34.801,295.049 37.964 C 293.989 39.024,291.859 43.012,291.856 43.944 C 291.843 47.398,290.530 47.535,286.114 44.546 C 283.925 43.064,283.806 42.743,283.168 36.589 C 281.815 23.541,277.921 15.595,271.304 12.378 C 268.304 10.919,262.678 10.574,259.709 11.666 M262.451 15.167 C 255.295 16.436,251.985 22.992,251.031 37.787 C 250.465 46.558,250.741 75.879,251.691 107.984 C 252.268 127.493,252.728 154.640,252.508 156.294 C 252.044 159.790,250.698 159.821,246.250 156.437 C 240.714 152.224,239.006 146.120,236.543 121.739 C 234.432 100.838,234.065 97.663,233.179 92.643 C 231.512 83.193,229.848 80.749,224.831 80.390 C 221.577 80.157,219.087 81.403,217.811 83.901 C 215.501 88.428,215.862 95.921,219.613 121.265 C 219.870 123.004,220.363 126.419,220.708 128.854 C 221.813 136.648,224.623 149.987,226.137 154.625 C 228.662 162.360,235.809 168.549,246.954 172.649 C 252.075 174.533,251.826 173.620,251.958 190.988 C 252.091 208.355,252.183 207.899,248.493 208.175 C 241.790 208.677,232.428 205.176,226.856 200.083 C 220.914 194.653,216.082 181.272,212.628 160.678 C 210.255 146.535,207.662 142.306,201.356 142.296 C 193.240 142.282,191.086 148.870,193.707 165.692 C 198.537 196.686,207.611 212.532,225.200 220.689 C 231.470 223.597,236.609 224.901,248.379 226.569 C 253.897 227.351,253.397 224.564,253.881 257.233 C 254.578 304.322,254.321 300.284,256.614 300.181 C 258.957 300.076,276.324 291.790,277.373 290.277 C 277.876 289.551,277.896 288.881,277.625 282.055 C 277.225 272.013,276.607 220.005,276.864 218.024 C 277.180 215.585,277.338 215.442,280.877 214.376 C 305.263 207.035,314.356 196.052,318.570 168.854 C 320.057 159.256,320.614 154.265,321.412 143.399 C 323.969 108.590,322.304 99.289,313.519 99.289 C 306.612 99.289,304.774 103.146,304.178 118.893 C 303.640 133.117,302.915 148.162,302.624 151.146 C 302.462 152.798,302.242 155.289,302.135 156.680 C 300.362 179.743,295.034 189.332,282.176 192.597 C 276.571 194.020,276.530 193.795,277.308 166.008 C 277.476 160.008,277.764 145.636,277.949 134.071 C 278.519 98.351,277.971 101.540,283.953 99.128 C 301.334 92.120,305.543 85.355,308.285 60.018 C 309.690 47.033,307.077 39.342,301.287 39.430 C 296.823 39.497,295.674 42.444,295.025 55.494 C 294.027 75.555,292.841 79.926,287.455 83.403 C 281.636 87.159,280.288 87.615,279.328 86.149 C 278.767 85.293,278.772 83.382,279.413 55.477 C 280.109 25.206,274.951 12.950,262.451 15.167 M193.043 24.661 C 172.100 25.898,152.381 31.381,132.880 41.389 C 123.123 46.397,122.924 46.849,128.634 51.054 C 135.067 55.790,139.450 60.947,142.623 67.510 C 145.044 72.517,145.493 73.925,147.060 81.423 C 149.762 94.352,142.827 112.534,131.669 121.777 C 113.082 137.172,89.002 136.007,70.561 118.819 C 65.538 114.137,65.080 114.263,62.707 120.975 C 59.550 129.906,59.221 131.702,60.553 132.750 C 61.563 133.544,61.569 133.522,60.112 134.486 C 57.534 136.192,55.652 146.353,57.762 147.174 C 58.080 147.298,63.391 147.301,69.565 147.181 C 77.092 147.036,82.389 147.085,85.643 147.330 C 89.271 147.603,90.604 147.605,90.928 147.336 C 91.620 146.761,92.194 147.129,91.573 147.749 C 89.866 149.456,72.862 150.154,59.723 149.056 C 57.557 148.875,57.245 148.921,56.660 149.506 C 52.786 153.381,55.373 196.706,59.594 198.630 L 60.340 198.969 59.736 199.959 C 58.853 201.408,58.960 201.940,62.064 211.542 C 65.191 221.210,67.256 225.483,69.198 226.305 C 70.002 226.645,70.199 226.879,70.027 227.289 C 69.267 229.091,70.031 230.911,75.034 239.209 C 81.536 249.997,86.656 256.509,89.021 257.001 C 90.262 257.258,90.262 257.260,90.161 258.661 L 90.060 260.064 96.975 266.870 C 109.833 279.527,118.850 286.116,134.195 294.070 C 143.336 298.808,145.392 299.477,148.221 298.636 C 148.851 298.448,148.933 298.536,148.933 299.402 C 148.933 300.707,149.518 301.053,154.659 302.786 C 177.792 310.584,203.221 312.573,228.617 308.572 C 239.136 306.915,250.315 303.884,251.268 302.430 C 251.810 301.602,251.723 278.160,251.072 249.960 C 250.819 239.010,250.701 237.803,249.757 236.492 C 249.469 236.093,249.543 235.787,250.115 235.013 C 252.060 232.383,250.415 229.558,246.581 228.941 C 212.436 223.447,199.858 210.524,192.255 173.123 C 187.523 149.848,190.036 140.224,200.949 139.821 C 209.954 139.488,212.158 143.194,216.151 165.375 C 217.659 173.749,219.463 180.928,221.440 186.412 C 225.471 197.599,235.678 205.528,246.052 205.533 C 249.728 205.534,249.681 205.790,249.260 188.068 L 249.007 177.401 248.219 176.634 C 247.785 176.212,245.368 174.897,242.846 173.712 C 227.722 166.606,223.979 161.226,220.103 141.028 C 219.216 136.403,218.213 130.532,217.861 127.905 C 217.698 126.688,217.276 123.771,216.923 121.423 C 215.593 112.578,213.789 97.065,213.577 92.648 C 213.439 89.794,213.191 87.738,212.920 87.203 C 212.515 86.404,212.539 86.307,213.267 85.830 C 213.697 85.548,214.568 84.389,215.202 83.256 C 220.976 72.930,232.504 76.703,235.885 90.025 C 236.070 90.756,236.584 91.785,237.027 92.311 C 237.780 93.206,237.800 93.313,237.335 93.977 C 236.760 94.797,236.684 97.397,237.131 100.926 C 237.425 103.242,237.575 104.693,238.746 116.522 C 241.272 142.041,242.111 146.814,244.770 150.796 C 247.192 154.423,249.249 155.082,249.898 152.441 C 250.176 151.312,249.102 109.537,248.584 101.320 C 248.378 98.043,248.238 97.354,247.597 96.454 C 246.903 95.480,246.889 95.377,247.390 95.011 C 248.530 94.177,248.573 92.974,248.190 72.569 C 247.984 61.613,247.900 48.108,248.001 42.559 C 248.202 31.644,248.145 31.171,246.546 30.442 C 244.503 29.512,232.276 26.792,225.613 25.787 C 218.612 24.730,201.741 24.147,193.043 24.661 M214.367 25.941 C 225.195 26.509,244.290 30.031,246.377 31.846 C 246.906 32.306,247.060 43.645,247.106 85.499 C 247.117 95.286,247.448 94.927,240.643 92.512 C 237.820 91.510,237.285 91.075,236.999 89.549 C 234.352 75.437,220.454 71.668,213.705 83.232 L 212.865 84.671 204.061 84.516 L 195.257 84.360 192.253 85.516 C 190.601 86.152,187.897 87.433,186.245 88.364 C 183.075 90.149,181.637 90.549,173.046 92.042 C 164.600 93.509,162.276 96.619,156.639 113.992 C 156.018 115.905,155.247 118.182,154.925 119.051 C 154.602 119.921,154.178 121.273,153.983 122.055 C 152.256 128.954,145.522 144.222,141.436 150.503 C 137.483 156.579,134.578 158.793,122.552 164.893 C 112.006 170.243,110.628 171.237,100.870 180.538 C 83.364 197.223,84.319 196.761,65.906 197.475 C 58.738 197.753,58.824 197.836,57.861 189.723 C 57.685 188.245,57.334 185.613,57.079 183.874 C 55.487 172.989,55.703 151.915,57.421 150.489 C 57.725 150.237,60.591 150.246,67.892 150.521 C 89.555 151.339,94.246 150.300,93.289 144.893 C 92.133 138.356,88.757 136.043,82.073 137.207 C 79.516 137.652,79.048 137.532,78.279 136.230 C 75.437 131.418,69.978 129.291,64.676 130.928 C 60.426 132.241,60.270 131.638,62.888 124.019 C 65.695 115.849,65.659 115.875,69.231 119.289 C 80.104 129.681,88.889 133.293,103.241 133.269 C 112.616 133.254,116.352 132.349,124.427 128.137 C 136.079 122.059,145.709 109.047,147.652 96.759 C 147.831 95.628,148.121 94.206,148.297 93.599 C 148.896 91.529,148.687 83.344,147.946 79.845 C 145.137 66.591,139.461 57.528,129.249 49.991 C 125.692 47.366,125.508 46.906,127.510 45.640 C 132.235 42.653,147.345 35.633,152.253 34.145 C 153.296 33.829,155.004 33.269,156.047 32.901 C 171.903 27.303,192.793 24.810,214.367 25.941 M96.037 45.709 C 63.805 51.137,49.513 88.842,70.016 114.354 C 94.567 144.902,144.819 127.044,144.890 87.747 C 144.936 61.942,121.156 41.479,96.037 45.709 M108.370 46.039 C 133.289 49.730,149.721 74.776,142.995 98.816 C 135.778 124.612,105.679 137.242,82.470 124.212 C 57.923 110.430,53.422 77.715,73.340 57.854 C 82.638 48.584,95.733 44.167,108.370 46.039 M184.354 46.812 C 182.021 47.651,178.700 49.904,175.920 52.535 C 173.405 54.916,173.365 54.929,170.817 54.189 C 164.913 52.473,156.430 56.227,151.966 62.531 C 149.530 65.972,150.258 66.998,155.415 67.394 C 177.973 69.127,201.059 68.947,205.907 67.001 C 210.461 65.173,206.549 55.365,201.256 55.339 C 200.229 55.334,199.277 54.473,198.596 52.933 C 196.236 47.598,189.827 44.844,184.354 46.812 M283.181 48.358 C 282.151 49.497,281.088 79.773,282.017 81.510 C 283.156 83.638,288.011 80.739,289.710 76.915 C 291.491 72.906,292.882 54.645,291.565 52.562 C 289.972 50.045,284.251 47.176,283.181 48.358 M191.797 49.516 C 193.916 50.522,196.373 53.853,196.843 56.358 C 197.175 58.128,197.912 58.585,200.769 58.795 C 203.565 59.000,204.328 59.450,204.919 61.241 C 205.832 64.007,205.209 64.281,199.300 63.708 C 191.981 62.998,166.054 63.201,157.628 64.035 C 154.254 64.369,154.201 63.538,157.427 60.846 C 162.762 56.396,167.640 55.241,171.185 57.588 C 173.202 58.924,173.598 58.759,177.711 54.872 C 183.320 49.571,188.091 47.757,191.797 49.516 M287.091 50.514 C 291.223 52.943,291.390 53.511,290.596 62.415 C 290.423 64.348,290.149 67.640,289.985 69.731 C 289.539 75.455,288.161 78.399,285.021 80.340 C 283.022 81.575,283.004 81.510,283.004 73.132 C 283.005 64.049,283.571 50.673,283.989 49.893 C 284.416 49.094,284.811 49.173,287.091 50.514 M201.107 56.874 C 201.780 57.161,201.639 57.201,200.158 57.143 C 198.616 57.083,198.407 56.994,198.317 56.358 C 198.205 55.569,197.926 55.517,201.107 56.874 M173.755 56.601 C 173.647 56.775,173.363 56.917,173.123 56.917 C 172.882 56.917,172.598 56.775,172.490 56.601 C 172.379 56.421,172.651 56.285,173.123 56.285 C 173.594 56.285,173.866 56.421,173.755 56.601 M153.360 63.983 C 153.360 65.467,154.160 65.567,161.424 64.984 C 173.423 64.021,207.947 64.735,205.059 65.887 C 200.634 67.652,174.667 67.901,157.070 66.347 C 152.488 65.943,151.764 65.642,152.338 64.382 C 152.735 63.510,153.360 63.266,153.360 63.983 M310.125 70.435 C 309.856 70.739,309.315 72.625,308.921 74.625 C 306.324 87.812,301.390 93.781,287.623 100.392 C 284.372 101.953,281.959 103.305,281.760 103.676 C 281.182 104.756,281.365 106.081,282.201 106.865 L 282.978 107.596 282.084 108.432 L 281.189 109.267 280.975 114.792 C 280.777 119.878,280.464 138.048,279.947 174.427 L 279.744 188.696 280.617 189.268 C 283.608 191.228,290.939 186.610,294.312 180.640 C 298.109 173.920,301.036 150.220,301.144 125.320 L 301.186 115.778 300.298 114.849 L 299.410 113.919 300.377 112.952 C 300.909 112.421,301.344 111.684,301.344 111.315 C 301.344 102.407,308.098 95.576,315.428 97.071 C 322.401 98.493,324.853 103.228,325.373 116.279 C 325.616 122.347,325.705 123.083,326.306 123.926 L 326.970 124.859 326.198 125.631 C 325.266 126.563,325.217 126.901,324.586 136.759 C 322.795 164.753,319.964 181.538,315.332 191.621 C 310.373 202.415,298.315 211.967,284.398 216.126 C 278.943 217.756,279.040 217.573,279.331 225.613 C 279.513 230.679,279.608 231.402,280.191 232.198 C 280.779 233.001,280.796 233.145,280.365 233.621 C 279.302 234.796,279.238 235.712,279.529 245.590 C 279.686 250.950,279.977 262.299,280.175 270.810 C 280.645 291.028,280.294 290.347,287.700 285.397 C 310.592 270.092,328.619 249.248,339.679 225.296 C 342.372 219.463,342.578 218.639,341.667 217.339 C 341.231 216.716,341.260 216.647,342.118 216.291 C 344.690 215.226,347.277 207.181,350.509 190.198 C 353.169 176.222,352.181 145.158,348.746 134.786 C 348.139 132.952,347.630 132.304,346.042 131.345 C 345.482 131.006,345.480 130.961,346.008 130.371 C 347.476 128.730,344.426 119.531,338.165 106.719 C 328.947 87.856,312.979 67.194,310.125 70.435 M314.572 73.913 C 321.621 81.039,331.683 95.827,337.000 106.877 C 342.792 118.914,346.237 128.671,344.881 129.191 C 344.223 129.444,332.806 125.657,328.458 123.745 C 326.873 123.048,326.706 122.305,326.512 115.099 C 326.426 111.881,326.264 108.893,326.152 108.458 C 324.059 100.319,321.158 96.946,315.252 95.784 C 307.683 94.295,302.143 99.491,300.260 109.846 C 299.725 112.783,300.008 112.797,291.225 109.410 C 288.877 108.505,286.184 107.493,285.239 107.160 C 281.389 105.805,281.525 104.433,285.693 102.603 C 295.014 98.510,300.390 94.796,304.144 89.860 C 306.881 86.260,309.158 80.493,310.071 74.849 C 310.776 70.490,311.115 70.419,314.572 73.913 M211.520 87.800 C 211.954 88.336,212.121 89.370,212.285 92.543 C 212.400 94.775,212.699 98.166,212.948 100.079 C 213.198 101.992,213.567 105.051,213.770 106.877 C 213.972 108.704,214.342 111.621,214.592 113.360 C 214.842 115.099,215.188 117.725,215.360 119.197 C 215.533 120.668,215.874 122.873,216.119 124.098 C 216.364 125.322,216.721 127.747,216.913 129.486 C 217.106 131.225,217.525 133.929,217.846 135.494 C 218.166 137.059,218.598 139.336,218.806 140.553 C 222.217 160.524,226.646 167.128,241.528 174.434 C 246.429 176.840,247.057 177.238,247.455 178.192 C 248.096 179.724,248.517 203.057,247.917 203.780 C 246.459 205.537,236.222 202.579,231.515 199.041 C 224.800 193.993,220.005 182.319,217.104 163.953 C 216.857 162.387,216.443 160.182,216.186 159.051 C 215.928 157.921,215.542 155.929,215.327 154.625 C 213.540 143.751,209.120 138.498,201.758 138.498 C 189.137 138.498,185.723 150.195,191.281 174.387 C 191.600 175.779,191.958 177.486,192.076 178.182 C 195.183 196.488,205.541 213.860,217.596 220.980 C 225.222 225.484,232.286 227.728,246.640 230.204 C 249.148 230.637,250.414 232.703,249.024 234.093 C 248.296 234.821,239.765 235.030,209.328 235.066 C 181.607 235.099,176.653 234.947,169.644 233.848 C 168.079 233.602,165.518 233.242,163.953 233.047 C 162.387 232.852,160.324 232.493,159.368 232.249 C 158.411 232.005,156.561 231.646,155.257 231.450 C 153.953 231.254,151.320 230.759,149.407 230.350 C 143.202 229.023,140.925 228.595,137.708 228.150 C 135.968 227.909,133.194 227.427,131.542 227.079 C 125.664 225.838,122.073 225.680,95.336 225.486 C 81.075 225.382,69.226 225.179,69.005 225.036 C 67.848 224.288,64.269 215.324,62.227 208.063 C 61.714 206.237,61.061 203.926,60.778 202.928 C 59.997 200.178,60.685 199.897,68.300 199.857 C 84.024 199.775,85.184 199.184,102.134 182.613 C 111.253 173.698,112.855 172.533,123.162 167.330 C 138.244 159.717,141.111 157.061,147.428 144.860 C 149.612 140.642,152.664 133.633,153.831 130.157 C 154.283 128.810,154.852 127.255,155.095 126.700 C 155.338 126.146,155.987 124.126,156.537 122.213 C 158.621 114.967,161.759 106.279,163.961 101.659 C 166.507 96.320,168.589 94.924,175.332 94.037 C 180.508 93.357,182.862 92.556,190.297 88.945 C 194.018 87.138,194.944 87.009,203.744 87.067 C 210.742 87.113,210.983 87.136,211.520 87.800 M241.423 95.339 C 245.251 96.479,246.582 97.118,246.916 97.973 C 247.495 99.456,248.143 115.048,248.521 136.624 C 248.831 154.261,248.897 153.777,246.537 151.165 C 244.328 148.720,242.951 144.240,242.206 137.075 C 242.007 135.162,241.568 131.534,241.230 129.012 C 240.892 126.490,240.412 122.150,240.163 119.368 C 239.568 112.709,238.821 104.920,238.420 101.186 C 237.706 94.547,237.846 94.274,241.423 95.339 M288.854 111.074 C 295.102 113.422,299.431 115.428,299.822 116.158 C 300.079 116.638,300.121 119.907,299.973 127.844 C 299.775 138.425,299.663 140.366,298.640 151.002 C 298.388 153.618,298.182 156.425,298.182 157.240 C 298.182 158.055,297.979 159.828,297.730 161.179 C 297.482 162.531,297.114 165.059,296.913 166.798 C 295.536 178.729,290.656 186.582,283.607 188.209 C 280.844 188.847,280.984 189.675,281.216 174.073 C 281.328 166.594,281.556 149.874,281.724 136.917 C 282.005 115.304,282.165 110.371,282.610 109.608 C 282.892 109.126,284.963 109.612,288.854 111.074 M332.964 128.125 C 334.964 128.821,338.664 130.102,341.186 130.972 C 346.774 132.899,348.443 134.760,348.462 139.085 C 348.464 139.545,348.673 140.700,348.927 141.653 C 350.147 146.239,351.049 158.826,350.909 169.328 C 350.724 183.251,350.100 188.153,346.823 201.423 C 344.830 209.494,344.507 210.600,343.484 212.842 L 342.530 214.932 340.356 215.452 C 339.160 215.738,336.688 216.189,334.862 216.454 C 333.036 216.719,330.830 217.072,329.960 217.237 C 329.091 217.403,326.767 217.763,324.795 218.038 C 322.824 218.313,320.133 218.813,318.816 219.150 C 317.498 219.487,316.113 219.763,315.737 219.763 C 313.711 219.763,303.218 223.254,297.233 225.919 C 285.611 231.095,282.118 232.206,281.148 231.038 C 280.939 230.786,280.714 228.386,280.593 225.109 C 280.345 218.411,280.143 218.766,285.170 217.090 C 304.065 210.790,315.669 199.360,319.697 183.083 C 321.473 175.904,322.699 169.389,323.178 164.585 C 323.369 162.672,323.795 159.257,324.125 156.996 C 324.455 154.735,324.944 149.328,325.211 144.980 C 326.509 123.867,325.711 125.601,332.964 128.125 M72.253 134.301 C 73.861 135.144,75.311 136.683,76.208 138.498 C 77.576 141.265,78.421 141.567,81.505 140.395 C 86.140 138.634,90.435 140.855,90.435 145.013 C 90.435 146.411,90.092 146.472,84.617 146.060 C 80.045 145.716,65.363 145.853,60.844 146.283 C 57.644 146.587,57.336 145.527,58.860 139.467 C 59.716 136.061,60.833 134.924,64.506 133.717 C 66.035 133.215,70.878 133.580,72.253 134.301 M79.816 139.156 C 80.189 139.504,79.212 139.892,78.577 139.648 C 78.316 139.548,78.103 139.239,78.103 138.961 C 78.103 138.439,79.179 138.562,79.816 139.156 M340.752 218.648 C 341.249 219.943,334.439 233.853,329.994 240.620 C 329.248 241.757,328.458 243.025,328.239 243.437 C 326.722 246.300,316.122 259.404,311.493 264.140 C 301.746 274.113,283.537 288.068,282.120 286.652 C 281.684 286.217,280.513 237.036,280.902 235.490 C 281.079 234.782,281.534 234.548,284.663 233.560 C 288.231 232.433,291.228 231.261,297.708 228.458 C 308.412 223.827,313.223 222.536,329.644 219.894 C 331.209 219.642,333.700 219.164,335.178 218.833 C 338.542 218.078,340.509 218.013,340.752 218.648 M125.850 228.705 C 127.328 228.975,129.747 229.363,131.225 229.568 C 132.704 229.774,135.265 230.204,136.917 230.525 C 138.569 230.846,140.632 231.193,141.502 231.295 C 142.372 231.398,144.648 231.829,146.561 232.252 C 148.474 232.676,152.530 233.464,155.573 234.005 C 158.617 234.545,162.103 235.184,163.320 235.425 C 164.538 235.667,166.957 236.018,168.696 236.207 C 170.435 236.395,172.996 236.687,174.387 236.855 C 178.360 237.335,190.260 237.776,200.632 237.827 C 213.775 237.892,223.083 238.198,223.083 238.565 C 223.083 239.010,218.129 240.595,215.020 241.144 C 213.542 241.405,211.265 241.882,209.960 242.203 C 208.656 242.524,206.095 242.955,204.269 243.160 C 202.443 243.365,200.451 243.657,199.842 243.808 C 199.233 243.958,197.312 244.231,195.573 244.414 C 193.834 244.597,190.393 245.023,187.928 245.359 C 185.462 245.696,181.833 246.065,179.864 246.180 C 177.895 246.295,174.435 246.652,172.174 246.973 C 169.913 247.295,166.142 247.712,163.794 247.901 C 161.447 248.090,157.483 248.534,154.986 248.888 C 152.489 249.241,149.999 249.534,149.452 249.538 C 148.906 249.542,146.395 249.876,143.874 250.281 C 141.352 250.685,138.435 251.106,137.391 251.215 C 136.348 251.325,133.787 251.688,131.700 252.021 C 129.613 252.354,126.198 252.778,124.111 252.962 C 122.024 253.146,118.324 253.505,115.889 253.761 C 113.455 254.016,109.826 254.303,107.826 254.400 C 105.826 254.496,102.767 254.705,101.028 254.865 C 86.762 256.179,88.834 256.787,83.570 249.748 C 76.156 239.836,70.030 228.851,71.542 228.177 C 72.564 227.721,123.153 228.213,125.850 228.705 M234.138 236.503 C 234.284 236.739,227.022 239.368,226.224 239.368 C 226.111 239.368,226.108 239.009,226.218 238.571 C 226.328 238.132,226.273 237.502,226.096 237.171 C 225.841 236.694,225.889 236.537,226.325 236.423 C 227.398 236.143,233.957 236.210,234.138 236.503 M244.572 236.543 C 244.457 236.728,243.784 237.300,243.076 237.813 L 241.788 238.746 241.373 237.555 C 241.145 236.900,240.956 236.328,240.953 236.285 C 240.951 236.241,241.811 236.206,242.865 236.206 C 244.140 236.206,244.711 236.318,244.572 236.543 M248.958 237.936 C 249.730 238.708,249.793 240.369,250.120 268.775 C 250.293 283.818,250.524 297.273,250.632 298.674 C 250.889 302.010,249.700 302.910,243.341 304.195 C 242.310 304.404,240.890 304.778,240.188 305.026 C 238.538 305.608,230.479 307.155,225.613 307.823 C 223.526 308.110,220.964 308.491,219.921 308.670 C 217.147 309.147,196.729 309.371,190.988 308.988 C 178.687 308.168,163.877 304.986,152.174 300.649 C 149.475 299.649,149.640 299.371,155.731 294.662 C 171.926 282.144,179.451 277.430,202.213 265.542 C 206.213 263.453,211.430 260.693,213.805 259.409 C 216.181 258.125,218.191 257.075,218.272 257.075 C 218.353 257.075,220.727 255.788,223.549 254.215 C 231.292 249.897,234.043 247.884,241.029 241.428 C 245.049 237.712,247.607 236.585,248.958 237.936 M239.618 238.463 C 239.681 238.793,238.378 240.171,236.029 242.257 C 229.562 248.002,226.966 249.609,209.802 258.494 C 180.937 273.436,172.735 278.303,159.630 288.263 C 157.601 289.805,153.933 292.597,151.479 294.466 C 148.251 296.926,146.772 297.866,146.128 297.866 C 142.214 297.866,118.261 284.248,110.040 277.349 C 103.411 271.786,91.383 260.045,91.383 259.137 C 91.383 258.368,92.837 257.992,95.793 257.996 C 97.281 257.998,101.415 257.725,104.980 257.389 C 108.545 257.053,114.451 256.559,118.103 256.291 C 121.755 256.022,126.095 255.602,127.747 255.357 C 129.399 255.111,132.601 254.677,134.862 254.391 C 137.123 254.105,139.542 253.750,140.237 253.600 C 140.933 253.451,142.356 253.231,143.399 253.112 C 144.443 252.993,147.289 252.567,149.723 252.166 C 152.158 251.765,155.715 251.341,157.628 251.224 C 159.542 251.108,163.099 250.733,165.534 250.393 C 167.968 250.053,171.953 249.635,174.387 249.465 C 176.822 249.295,180.308 248.956,182.134 248.712 C 183.960 248.468,186.735 248.175,188.300 248.061 C 189.866 247.946,193.209 247.522,195.731 247.118 C 198.253 246.714,201.383 246.289,202.688 246.175 C 203.992 246.060,206.482 245.677,208.221 245.323 C 218.043 243.325,219.691 242.887,229.565 239.653 C 235.862 237.590,239.372 237.174,239.618 238.463 M161.909 311.274 C 161.750 311.692,161.467 312.128,161.279 312.244 C 160.641 312.638,161.325 313.087,162.483 313.035 C 163.117 313.006,163.779 313.013,163.953 313.050 C 164.126 313.088,164.391 313.096,164.541 313.069 C 164.691 313.042,164.990 313.260,165.205 313.554 C 166.076 314.745,166.779 312.588,165.997 311.125 C 165.462 310.125,162.302 310.240,161.909 311.274 " stroke="none" fill="#365136" fill-rule="evenodd"></path></g></svg>